<svg xmlns="http://www.w3.org/2000/svg" xmlns:xlink="http://www.w3.org/1999/xlink" xmlns:lucid="lucid" width="1664.2" height="663"><g transform="translate(-138.5 21.5)" lucid:page-tab-id=".20rf-HGUcjA"><path d="M0-500h2000v1500H0z" fill="#fff"/><path d="M1801.2 574c0 36.45-203.44 66-454.4 66-250.95 0-454.4-29.55-454.4-66V46c0-36.45 203.45-66 454.4-66 250.96 0 454.4 29.55 454.4 66z" stroke="#5e5e5e" stroke-width="3" fill="#fff"/><path d="M1801.2 46c0 36.45-203.44 66-454.4 66-250.95 0-454.4-29.55-454.4-66" stroke="#5e5e5e" stroke-width="3" fill="none"/><path d="M917.48 386a6 6 0 0 1 6-6h846.64a6 6 0 0 1 6 6v173.5a6 6 0 0 1-6 6H923.48a6 6 0 0 1-6-6z" stroke="#ffc374" stroke-width="3" fill="#ffeca9" fill-opacity=".61"/><use xlink:href="#a" transform="matrix(1,0,0,1,929.482268726333,392) translate(0 21.333333333333332)"/><use xlink:href="#b" transform="matrix(1,0,0,1,929.482268726333,392) translate(62.148148148148145 21.333333333333332)"/><use xlink:href="#c" transform="matrix(1,0,0,1,929.482268726333,392) translate(0 53.33333333333333)"/><use xlink:href="#d" transform="matrix(1,0,0,1,929.482268726333,392) translate(131.6296296296296 53.33333333333333)"/><use xlink:href="#e" transform="matrix(1,0,0,1,929.482268726333,392) translate(190.88888888888886 53.33333333333333)"/><path d="M916.43 150.9a6 6 0 0 1 6-6h846.64a6 6 0 0 1 6 6v173.12a6 6 0 0 1-6 6H922.43a6 6 0 0 1-6-6z" stroke="#b391b5" stroke-width="3" fill="#d1bcd2" fill-opacity=".61"/><use xlink:href="#f" transform="matrix(1,0,0,1,928.4311365057556,156.91325071528752) translate(0 23.111111111111114)"/><use xlink:href="#g" transform="matrix(1,0,0,1,928.4311365057556,156.91325071528752) translate(0 57.777777777777786)"/><use xlink:href="#h" transform="matrix(1,0,0,1,928.4311365057556,156.91325071528752) translate(0 92.44444444444446)"/><path d="M1295.76 161.7a6 6 0 0 1 8.48 0l71.52 71.52a6 6 0 0 1 0 8.5l-71.52 71.5a6 6 0 0 1-8.48 0l-71.52-71.5a6 6 0 0 1 0-8.5z" stroke="#5e5e5e" stroke-width="3" fill="#fff"/><use xlink:href="#i" transform="matrix(1,0,0,1,1225,162.46697878546468) translate(35.33833333333333 82.27083333333334)"/><use xlink:href="#j" transform="matrix(1,0,0,1,1225,162.46697878546468) translate(99.85685185185186 82.27083333333334)"/><path d="M1455.76 161.7a6 6 0 0 1 8.48 0l71.52 71.52a6 6 0 0 1 0 8.5l-71.52 71.5a6 6 0 0 1-8.48 0l-71.52-71.5a6 6 0 0 1 0-8.5z" stroke="#5e5e5e" stroke-width="3" fill="#fff"/><use xlink:href="#i" transform="matrix(1,0,0,1,1385,162.46697878546468) translate(35.33833333333333 82.27083333333334)"/><use xlink:href="#k" transform="matrix(1,0,0,1,1385,162.46697878546468) translate(99.85685185185186 82.27083333333334)"/><path d="M1615.76 161.7a6 6 0 0 1 8.48 0l71.52 71.52a6 6 0 0 1 0 8.5l-71.52 71.5a6 6 0 0 1-8.48 0l-71.52-71.5a6 6 0 0 1 0-8.5z" stroke="#5e5e5e" stroke-width="3" fill="#fff"/><use xlink:href="#i" transform="matrix(1,0,0,1,1545,162.46697878546468) translate(35.33833333333333 82.27083333333334)"/><use xlink:href="#l" transform="matrix(1,0,0,1,1545,162.46697878546468) translate(99.85685185185186 82.27083333333334)"/><path d="M1295.76 397a6 6 0 0 1 8.48 0l71.52 71.5a6 6 0 0 1 0 8.5l-71.52 71.5a6 6 0 0 1-8.48 0l-71.52-71.5a6 6 0 0 1 0-8.5z" stroke="#5e5e5e" stroke-width="3" fill="#fff"/><use xlink:href="#m" transform="matrix(1,0,0,1,1225,397.74232456140317) translate(21.708703703703698 82.27083333333334)"/><use xlink:href="#j" transform="matrix(1,0,0,1,1225,397.74232456140317) translate(113.48648148148149 82.27083333333334)"/><path d="M1455.76 397a6 6 0 0 1 8.48 0l71.52 71.5a6 6 0 0 1 0 8.5l-71.52 71.5a6 6 0 0 1-8.48 0l-71.52-71.5a6 6 0 0 1 0-8.5z" stroke="#5e5e5e" stroke-width="3" fill="#fff"/><use xlink:href="#m" transform="matrix(1,0,0,1,1385,397.74232456140317) translate(21.708703703703698 82.27083333333334)"/><use xlink:href="#k" transform="matrix(1,0,0,1,1385,397.74232456140317) translate(113.48648148148149 82.27083333333334)"/><path d="M1615.76 397a6 6 0 0 1 8.48 0l71.52 71.5a6 6 0 0 1 0 8.5l-71.52 71.5a6 6 0 0 1-8.48 0l-71.52-71.5a6 6 0 0 1 0-8.5z" stroke="#5e5e5e" stroke-width="3" fill="#fff"/><use xlink:href="#m" transform="matrix(1,0,0,1,1545,397.74232456140317) translate(21.708703703703698 82.27083333333334)"/><use xlink:href="#l" transform="matrix(1,0,0,1,1545,397.74232456140317) translate(113.48648148148149 82.27083333333334)"/><path d="M1346.8 377v-21.46a.53.53 0 0 0-.52-.53.53.53 0 0 1-.53-.5v-2.36" stroke="#3a414a" stroke-width="3" fill="none"/><path d="M1348.28 378.5h-2.95v-1.54h2.95z" stroke="#3a414a" stroke-width=".05" fill="#3a414a"/><path d="M1345.75 336.38l4.64 14.26h-9.28z" stroke="#3a414a" stroke-width="3" fill="#3a414a"/><path d="M1163.63 26a6 6 0 0 1 6-6h354.34a6 6 0 0 1 6 6v48a6 6 0 0 1-6 6h-354.34a6 6 0 0 1-6-6z" fill="none"/><use xlink:href="#n" transform="matrix(1,0,0,1,1163.633958354841,20) translate(30.44444444444443 38)"/><use xlink:href="#o" transform="matrix(1,0,0,1,1163.633958354841,20) translate(128 38)"/><path d="M819.43 472.74h75.93" stroke="#3a414a" stroke-width="3" fill="none"/><path d="M819.47 474.22h-1.54v-2.95h1.54z" stroke="#3a414a" stroke-width=".05" fill="#3a414a"/><path d="M911.13 472.74l-14.27 4.64v-9.27z" stroke="#3a414a" stroke-width="3" fill="#3a414a"/><path d="M140 345.1a6 6 0 0 1 6-6h664.43a6 6 0 0 1 6 6v255.27a6 6 0 0 1-6 6H146a6 6 0 0 1-6-6z" stroke="#3a414a" stroke-width="3" fill="#cfe4ff"/><g><use xlink:href="#p" transform="matrix(1,0,0,1,145,344.11348684210475) translate(0 21.333333333333336)"/><use xlink:href="#q" transform="matrix(1,0,0,1,145,344.11348684210475) translate(65.03703703703704 21.333333333333336)"/><use xlink:href="#r" transform="matrix(1,0,0,1,145,344.11348684210475) translate(0 53.333333333333336)"/><use xlink:href="#s" transform="matrix(1,0,0,1,145,344.11348684210475) translate(128.59259259259258 53.333333333333336)"/></g><path d="M235.76 430.6a6 6 0 0 1 8.48 0l71.52 71.53a6 6 0 0 1 0 8.48l-71.52 71.53a6 6 0 0 1-8.48 0l-71.52-71.52a6 6 0 0 1 0-8.47z" stroke="#5e5e5e" stroke-width="3" fill="#fff"/><g><use xlink:href="#t" transform="matrix(1,0,0,1,165,431.3711622807016) translate(35.03277777777777 67.5625)"/><use xlink:href="#u" transform="matrix(1,0,0,1,165,431.3711622807016) translate(103.86611111111111 67.5625)"/><use xlink:href="#v" transform="matrix(1,0,0,1,165,431.3711622807016) translate(44.89388888888888 91.5625)"/><use xlink:href="#w" transform="matrix(1,0,0,1,165,431.3711622807016) translate(94.005 91.5625)"/></g><path d="M395.76 430.6a6 6 0 0 1 8.48 0l71.52 71.53a6 6 0 0 1 0 8.48l-71.52 71.53a6 6 0 0 1-8.48 0l-71.52-71.52a6 6 0 0 1 0-8.47z" stroke="#5e5e5e" stroke-width="3" fill="#fff"/><g><use xlink:href="#t" transform="matrix(1,0,0,1,325,431.3711622807016) translate(35.03277777777777 67.5625)"/><use xlink:href="#u" transform="matrix(1,0,0,1,325,431.3711622807016) translate(103.86611111111111 67.5625)"/><use xlink:href="#v" transform="matrix(1,0,0,1,325,431.3711622807016) translate(44.89388888888888 91.5625)"/><use xlink:href="#x" transform="matrix(1,0,0,1,325,431.3711622807016) translate(94.005 91.5625)"/></g><path d="M555.76 430.6a6 6 0 0 1 8.48 0l71.52 71.53a6 6 0 0 1 0 8.48l-71.52 71.53a6 6 0 0 1-8.48 0l-71.52-71.52a6 6 0 0 1 0-8.47z" stroke="#5e5e5e" stroke-width="3" fill="#fff"/><g><use xlink:href="#t" transform="matrix(1,0,0,1,485,431.3711622807016) translate(35.03277777777777 67.5625)"/><use xlink:href="#y" transform="matrix(1,0,0,1,485,431.3711622807016) translate(103.86611111111111 67.5625)"/><use xlink:href="#v" transform="matrix(1,0,0,1,485,431.3711622807016) translate(44.89388888888888 91.5625)"/><use xlink:href="#w" transform="matrix(1,0,0,1,485,431.3711622807016) translate(94.005 91.5625)"/></g><path d="M715.76 430.6a6 6 0 0 1 8.48 0l71.52 71.53a6 6 0 0 1 0 8.48l-71.52 71.53a6 6 0 0 1-8.48 0l-71.52-71.52a6 6 0 0 1 0-8.47z" stroke="#5e5e5e" stroke-width="3" fill="#fff"/><g><use xlink:href="#t" transform="matrix(1,0,0,1,645,431.3711622807016) translate(35.03277777777777 67.5625)"/><use xlink:href="#y" transform="matrix(1,0,0,1,645,431.3711622807016) translate(103.86611111111111 67.5625)"/><use xlink:href="#v" transform="matrix(1,0,0,1,645,431.3711622807016) translate(44.89388888888888 91.5625)"/><use xlink:href="#x" transform="matrix(1,0,0,1,645,431.3711622807016) translate(94.005 91.5625)"/></g><defs><path fill="#333" d="M258-177c0 46-32 67-71 75L235 0h-57l-41-94H76L58 0H6l48-248c89 2 204-19 204 71zm-53 3c0-46-63-30-107-33l-14 73c51-2 120 13 121-40" id="z"/><path fill="#333" d="M166-52c-4 17 5 29 24 23l-3 27c-30 11-74 1-67-34C105-15 91 4 56 4 23 4 3-15 2-49c0-64 63-67 128-67 10-22 3-53-29-45-13 3-22 10-25 24l-46-5c5-64 156-77 153 0-1 33-11 60-17 90zM97-88c-44-9-64 57-19 57 31 0 42-28 47-57H97" id="A"/><path fill="#333" d="M212 0h-52l-8-156L82 0H30L17-190h46l2 145 66-145h53l8 145 60-145h47" id="B"/><g id="a"><use transform="matrix(0.07407407407407407,0,0,0.07407407407407407,0,0)" xlink:href="#z"/><use transform="matrix(0.07407407407407407,0,0,0.07407407407407407,19.185185185185183,0)" xlink:href="#A"/><use transform="matrix(0.07407407407407407,0,0,0.07407407407407407,34,0)" xlink:href="#B"/></g><path fill="#333" d="M6 0l48-248h52L66-40h133l-8 40H6" id="C"/><path fill="#333" d="M100 10C77 47 50 87-15 72l7-35c37 9 51-18 65-41L20-190h51L89-44l73-146h53" id="D"/><path fill="#333" d="M114-194c63-2 87 48 72 110H63c-3 28 1 55 31 54 21-1 32-13 37-29l44 13C160-14 137 4 91 4 41 4 11-22 11-73c0-71 33-119 103-121zm30 77c14-47-50-61-67-22-3 6-6 13-8 22h75" id="E"/><path fill="#333" d="M84-151c13-25 34-51 72-40l-8 41C67-170 71-64 56 0H6l36-190h47" id="F"/><path fill="#333" d="M41-132l10-50h51l-10 50H41zM16 0l9-49h51L66 0H16" id="G"/><g id="b"><use transform="matrix(0.07407407407407407,0,0,0.07407407407407407,0,0)" xlink:href="#C"/><use transform="matrix(0.07407407407407407,0,0,0.07407407407407407,16.22222222222222,0)" xlink:href="#A"/><use transform="matrix(0.07407407407407407,0,0,0.07407407407407407,31.037037037037035,0)" xlink:href="#D"/><use transform="matrix(0.07407407407407407,0,0,0.07407407407407407,45.85185185185185,0)" xlink:href="#E"/><use transform="matrix(0.07407407407407407,0,0,0.07407407407407407,60.66666666666666,0)" xlink:href="#F"/><use transform="matrix(0.07407407407407407,0,0,0.07407407407407407,71.03703703703702,0)" xlink:href="#G"/></g><path fill="#333" d="M33 0v-248h34V0H33" id="H"/><path fill="#333" d="M210-169c-67 3-38 105-44 169h-31v-121c0-29-5-50-35-48C34-165 62-65 56 0H25l-1-190h30c1 10-1 24 2 32 10-44 99-50 107 0 11-21 27-35 58-36 85-2 47 119 55 194h-31v-121c0-29-5-49-35-48" id="I"/><path fill="#333" d="M84 4C-5 8 30-112 23-190h32v120c0 31 7 50 39 49 72-2 45-101 50-169h31l1 190h-30c-1-10 1-25-2-33-11 22-28 36-60 37" id="J"/><path fill="#333" d="M59-47c-2 24 18 29 38 22v24C64 9 27 4 27-40v-127H5v-23h24l9-43h21v43h35v23H59v120" id="K"/><path fill="#333" d="M141-36C126-15 110 5 73 4 37 3 15-17 15-53c-1-64 63-63 125-63 3-35-9-54-41-54-24 1-41 7-42 31l-33-3c5-37 33-52 76-52 45 0 72 20 72 64v82c-1 20 7 32 28 27v20c-31 9-61-2-59-35zM48-53c0 20 12 33 32 33 41-3 63-29 60-74-43 2-92-5-92 41" id="L"/><path fill="#333" d="M115-194c53 0 69 39 70 98 0 66-23 100-70 100C84 3 66-7 56-30L54 0H23l1-261h32v101c10-23 28-34 59-34zm-8 174c40 0 45-34 45-75 0-40-5-75-45-74-42 0-51 32-51 76 0 43 10 73 51 73" id="M"/><path fill="#333" d="M24 0v-261h32V0H24" id="N"/><path fill="#333" d="M100-194c63 0 86 42 84 106H49c0 40 14 67 53 68 26 1 43-12 49-29l28 8c-11 28-37 45-77 45C44 4 14-33 15-96c1-61 26-98 85-98zm52 81c6-60-76-77-97-28-3 7-6 17-6 28h103" id="O"/><g id="c"><use transform="matrix(0.07407407407407407,0,0,0.07407407407407407,0,0)" xlink:href="#H"/><use transform="matrix(0.07407407407407407,0,0,0.07407407407407407,7.4074074074074066,0)" xlink:href="#I"/><use transform="matrix(0.07407407407407407,0,0,0.07407407407407407,29.55555555555555,0)" xlink:href="#I"/><use transform="matrix(0.07407407407407407,0,0,0.07407407407407407,51.703703703703695,0)" xlink:href="#J"/><use transform="matrix(0.07407407407407407,0,0,0.07407407407407407,66.5185185185185,0)" xlink:href="#K"/><use transform="matrix(0.07407407407407407,0,0,0.07407407407407407,73.92592592592591,0)" xlink:href="#L"/><use transform="matrix(0.07407407407407407,0,0,0.07407407407407407,88.74074074074072,0)" xlink:href="#M"/><use transform="matrix(0.07407407407407407,0,0,0.07407407407407407,103.55555555555553,0)" xlink:href="#N"/><use transform="matrix(0.07407407407407407,0,0,0.07407407407407407,109.40740740740739,0)" xlink:href="#O"/></g><path fill="#333" d="M85-194c31 0 48 13 60 33l-1-100h32l1 261h-30c-2-10 0-23-3-31C134-8 116 4 85 4 32 4 16-35 15-94c0-66 23-100 70-100zm9 24c-40 0-46 34-46 75 0 40 6 74 45 74 42 0 51-32 51-76 0-42-9-74-50-73" id="P"/><g id="d"><use transform="matrix(0.07407407407407407,0,0,0.07407407407407407,0,0)" xlink:href="#P"/><use transform="matrix(0.07407407407407407,0,0,0.07407407407407407,14.814814814814813,0)" xlink:href="#L"/><use transform="matrix(0.07407407407407407,0,0,0.07407407407407407,29.629629629629626,0)" xlink:href="#K"/><use transform="matrix(0.07407407407407407,0,0,0.07407407407407407,37.03703703703703,0)" xlink:href="#L"/></g><path fill="#333" d="M106-169C34-169 62-67 57 0H25v-261h32l-1 103c12-21 28-36 61-36 89 0 53 116 60 194h-32v-121c2-32-8-49-39-48" id="Q"/><path fill="#333" d="M24-231v-30h32v30H24zM24 0v-190h32V0H24" id="R"/><path fill="#333" d="M135-143c-3-34-86-38-87 0 15 53 115 12 119 90S17 21 10-45l28-5c4 36 97 45 98 0-10-56-113-15-118-90-4-57 82-63 122-42 12 7 21 19 24 35" id="S"/><path fill="#333" d="M100-194c62-1 85 37 85 99 1 63-27 99-86 99S16-35 15-95c0-66 28-99 85-99zM99-20c44 1 53-31 53-75 0-43-8-75-51-75s-53 32-53 75 10 74 51 75" id="T"/><path fill="#333" d="M114-163C36-179 61-72 57 0H25l-1-190h30c1 12-1 29 2 39 6-27 23-49 58-41v29" id="U"/><path fill="#333" d="M179-190L93 31C79 59 56 82 12 73V49c39 6 53-20 64-50L1-190h34L92-34l54-156h33" id="V"/><g id="e"><use transform="matrix(0.07407407407407407,0,0,0.07407407407407407,0,0)" xlink:href="#Q"/><use transform="matrix(0.07407407407407407,0,0,0.07407407407407407,14.814814814814813,0)" xlink:href="#R"/><use transform="matrix(0.07407407407407407,0,0,0.07407407407407407,20.666666666666664,0)" xlink:href="#S"/><use transform="matrix(0.07407407407407407,0,0,0.07407407407407407,34,0)" xlink:href="#K"/><use transform="matrix(0.07407407407407407,0,0,0.07407407407407407,41.407407407407405,0)" xlink:href="#T"/><use transform="matrix(0.07407407407407407,0,0,0.07407407407407407,56.22222222222221,0)" xlink:href="#U"/><use transform="matrix(0.07407407407407407,0,0,0.07407407407407407,65.03703703703702,0)" xlink:href="#V"/></g><path fill="#333" d="M241-173c-1 82-78 91-166 86L58 0H6l48-248c87 0 188-12 187 75zm-53 2c0-43-48-36-90-36l-15 80c50 0 105 7 105-44" id="W"/><path fill="#333" d="M144-137c-1-29-70-35-71-2 16 41 103 10 103 80C176 9 79 16 32-9 18-17 9-31 4-48l44-6c3 32 80 36 82 1-15-42-103-11-103-82 0-77 157-79 161-8" id="X"/><path fill="#333" d="M151-194c95 0 34 128 28 194h-49l25-134c0-29-45-25-59-9C67-111 69-48 56 0H6l36-190h47l-4 32c15-20 33-36 66-36" id="Y"/><path fill="#333" d="M72-63c-8 23 5 39 32 30L98-1C54 14 12-6 23-64l18-93H15l7-33h28l24-45h31l-8 45h35l-6 33H90" id="Z"/><path fill="#333" d="M50-224l7-37h49l-7 37H50zM6 0l37-190h49L55 0H6" id="aa"/><path fill="#333" d="M124-194c51 0 84 22 84 74C207-44 167 4 94 4 43 4 11-23 11-74c0-74 41-120 113-120zM99-30c46 0 58-42 58-86 0-27-11-44-37-44-44 0-55 40-57 84-1 27 10 45 36 46" id="ab"/><g id="f"><use transform="matrix(0.08024691358024691,0,0,0.08024691358024691,0,0)" xlink:href="#W"/><use transform="matrix(0.08024691358024691,0,0,0.08024691358024691,19.25925925925926,0)" xlink:href="#F"/><use transform="matrix(0.08024691358024691,0,0,0.08024691358024691,30.49382716049383,0)" xlink:href="#E"/><use transform="matrix(0.08024691358024691,0,0,0.08024691358024691,46.543209876543216,0)" xlink:href="#X"/><use transform="matrix(0.08024691358024691,0,0,0.08024691358024691,62.592592592592595,0)" xlink:href="#E"/><use transform="matrix(0.08024691358024691,0,0,0.08024691358024691,78.64197530864197,0)" xlink:href="#Y"/><use transform="matrix(0.08024691358024691,0,0,0.08024691358024691,96.21604938271605,0)" xlink:href="#Z"/><use transform="matrix(0.08024691358024691,0,0,0.08024691358024691,105.76543209876543,0)" xlink:href="#A"/><use transform="matrix(0.08024691358024691,0,0,0.08024691358024691,121.81481481481481,0)" xlink:href="#Z"/><use transform="matrix(0.08024691358024691,0,0,0.08024691358024691,131.3641975308642,0)" xlink:href="#aa"/><use transform="matrix(0.08024691358024691,0,0,0.08024691358024691,139.38888888888889,0)" xlink:href="#ab"/><use transform="matrix(0.08024691358024691,0,0,0.08024691358024691,156.96296296296296,0)" xlink:href="#Y"/></g><g id="g"><use transform="matrix(0.08024691358024691,0,0,0.08024691358024691,0,0)" xlink:href="#C"/><use transform="matrix(0.08024691358024691,0,0,0.08024691358024691,17.574074074074073,0)" xlink:href="#A"/><use transform="matrix(0.08024691358024691,0,0,0.08024691358024691,33.623456790123456,0)" xlink:href="#D"/><use transform="matrix(0.08024691358024691,0,0,0.08024691358024691,49.672839506172835,0)" xlink:href="#E"/><use transform="matrix(0.08024691358024691,0,0,0.08024691358024691,65.72222222222221,0)" xlink:href="#F"/><use transform="matrix(0.08024691358024691,0,0,0.08024691358024691,76.95679012345678,0)" xlink:href="#G"/></g><path fill="#333" d="M205 0l-28-72H64L36 0H1l101-248h38L239 0h-34zm-38-99l-47-123c-12 45-31 82-46 123h93" id="ac"/><path fill="#333" d="M117-194c89-4 53 116 60 194h-32v-121c0-31-8-49-39-48C34-167 62-67 57 0H25l-1-190h30c1 10-1 24 2 32 11-22 29-35 61-36" id="ad"/><path fill="#333" d="M0 4l72-265h28L28 4H0" id="ae"/><path fill="#333" d="M115-194c55 1 70 41 70 98S169 2 115 4C84 4 66-9 55-30l1 105H24l-1-265h31l2 30c10-21 28-34 59-34zm-8 174c40 0 45-34 45-75s-6-73-45-74c-42 0-51 32-51 76 0 43 10 73 51 73" id="af"/><path fill="#333" d="M177-190C167-65 218 103 67 71c-23-6-38-20-44-43l32-5c15 47 100 32 89-28v-30C133-14 115 1 83 1 29 1 15-40 15-95c0-56 16-97 71-98 29-1 48 16 59 35 1-10 0-23 2-32h30zM94-22c36 0 50-32 50-73 0-42-14-75-50-75-39 0-46 34-46 75s6 73 46 73" id="ag"/><g id="h"><use transform="matrix(0.08024691358024691,0,0,0.08024691358024691,0,0)" xlink:href="#ac"/><use transform="matrix(0.08024691358024691,0,0,0.08024691358024691,19.25925925925926,0)" xlink:href="#ad"/><use transform="matrix(0.08024691358024691,0,0,0.08024691358024691,35.308641975308646,0)" xlink:href="#L"/><use transform="matrix(0.08024691358024691,0,0,0.08024691358024691,51.358024691358025,0)" xlink:href="#N"/><use transform="matrix(0.08024691358024691,0,0,0.08024691358024691,57.697530864197525,0)" xlink:href="#V"/><use transform="matrix(0.08024691358024691,0,0,0.08024691358024691,72.14197530864197,0)" xlink:href="#S"/><use transform="matrix(0.08024691358024691,0,0,0.08024691358024691,86.58641975308642,0)" xlink:href="#R"/><use transform="matrix(0.08024691358024691,0,0,0.08024691358024691,92.92592592592592,0)" xlink:href="#S"/><use transform="matrix(0.08024691358024691,0,0,0.08024691358024691,107.37037037037037,0)" xlink:href="#ae"/><use transform="matrix(0.08024691358024691,0,0,0.08024691358024691,115.39506172839505,0)" xlink:href="#U"/><use transform="matrix(0.08024691358024691,0,0,0.08024691358024691,124.94444444444444,0)" xlink:href="#O"/><use transform="matrix(0.08024691358024691,0,0,0.08024691358024691,140.99382716049382,0)" xlink:href="#af"/><use transform="matrix(0.08024691358024691,0,0,0.08024691358024691,157.04320987654322,0)" xlink:href="#T"/><use transform="matrix(0.08024691358024691,0,0,0.08024691358024691,173.0925925925926,0)" xlink:href="#U"/><use transform="matrix(0.08024691358024691,0,0,0.08024691358024691,182.641975308642,0)" xlink:href="#K"/><use transform="matrix(0.08024691358024691,0,0,0.08024691358024691,190.66666666666669,0)" xlink:href="#R"/><use transform="matrix(0.08024691358024691,0,0,0.08024691358024691,197.00617283950615,0)" xlink:href="#ad"/><use transform="matrix(0.08024691358024691,0,0,0.08024691358024691,213.05555555555557,0)" xlink:href="#ag"/></g><path fill="#333" d="M137 0h-34L2-248h35l83 218 83-218h36" id="ah"/><path fill="#333" d="M206 0h-36l-40-164L89 0H53L-1-190h32L70-26l43-164h34l41 164 42-164h31" id="ai"/><g id="i"><use transform="matrix(0.07407407407407408,0,0,0.07407407407407408,0,0)" xlink:href="#ah"/><use transform="matrix(0.07407407407407408,0,0,0.07407407407407408,17.25925925925926,0)" xlink:href="#R"/><use transform="matrix(0.07407407407407408,0,0,0.07407407407407408,23.111111111111114,0)" xlink:href="#O"/><use transform="matrix(0.07407407407407408,0,0,0.07407407407407408,37.92592592592593,0)" xlink:href="#ai"/></g><path fill="#333" d="M27 0v-27h64v-190l-56 39v-29l58-41h29v221h61V0H27" id="aj"/><use transform="matrix(0.07407407407407408,0,0,0.07407407407407408,0,0)" xlink:href="#aj" id="j"/><path fill="#333" d="M101-251c82-7 93 87 43 132L82-64C71-53 59-42 53-27h129V0H18c2-99 128-94 128-182 0-28-16-43-45-43s-46 15-49 41l-32-3c6-41 34-60 81-64" id="ak"/><use transform="matrix(0.07407407407407408,0,0,0.07407407407407408,0,0)" xlink:href="#ak" id="k"/><path fill="#333" d="M126-127c33 6 58 20 58 59 0 88-139 92-164 29-3-8-5-16-6-25l32-3c6 27 21 44 54 44 32 0 52-15 52-46 0-38-36-46-79-43v-28c39 1 72-4 72-42 0-27-17-43-46-43-28 0-47 15-49 41l-32-3c6-42 35-63 81-64 48-1 79 21 79 65 0 36-21 52-52 59" id="al"/><use transform="matrix(0.07407407407407408,0,0,0.07407407407407408,0,0)" xlink:href="#al" id="l"/><path fill="#333" d="M185-189c-5-48-123-54-124 2 14 75 158 14 163 119 3 78-121 87-175 55-17-10-28-26-33-46l33-7c5 56 141 63 141-1 0-78-155-14-162-118-5-82 145-84 179-34 5 7 8 16 11 25" id="am"/><path fill="#333" d="M96-169c-40 0-48 33-48 73s9 75 48 75c24 0 41-14 43-38l32 2c-6 37-31 61-74 61-59 0-76-41-82-99-10-93 101-131 147-64 4 7 5 14 7 22l-32 3c-4-21-16-35-41-35" id="an"/><g id="m"><use transform="matrix(0.07407407407407408,0,0,0.07407407407407408,0,0)" xlink:href="#am"/><use transform="matrix(0.07407407407407408,0,0,0.07407407407407408,17.77777777777778,0)" xlink:href="#T"/><use transform="matrix(0.07407407407407408,0,0,0.07407407407407408,32.592592592592595,0)" xlink:href="#J"/><use transform="matrix(0.07407407407407408,0,0,0.07407407407407408,47.40740740740741,0)" xlink:href="#U"/><use transform="matrix(0.07407407407407408,0,0,0.07407407407407408,56.22222222222223,0)" xlink:href="#an"/><use transform="matrix(0.07407407407407408,0,0,0.07407407407407408,69.55555555555557,0)" xlink:href="#O"/></g><path fill="#3a414a" d="M24-248c120-7 223 5 221 122C244-46 201 0 124 0H24v-248zM76-40c74 7 117-18 117-86 0-67-45-88-117-82v168" id="ao"/><path fill="#3a414a" d="M133-34C117-15 103 5 69 4 32 3 11-16 11-54c-1-60 55-63 116-61 1-26-3-47-28-47-18 1-26 9-28 27l-52-2c7-38 36-58 82-57s74 22 75 68l1 82c-1 14 12 18 25 15v27c-30 8-71 5-69-32zm-48 3c29 0 43-24 42-57-32 0-66-3-65 30 0 17 8 27 23 27" id="ap"/><path fill="#3a414a" d="M115-3C79 11 28 4 28-45v-112H4v-33h27l15-45h31v45h36v33H77v99c-1 23 16 31 38 25v30" id="aq"/><g id="n"><use transform="matrix(0.1111111111111111,0,0,0.1111111111111111,0,0)" xlink:href="#ao"/><use transform="matrix(0.1111111111111111,0,0,0.1111111111111111,28.777777777777775,0)" xlink:href="#ap"/><use transform="matrix(0.1111111111111111,0,0,0.1111111111111111,51,0)" xlink:href="#aq"/><use transform="matrix(0.1111111111111111,0,0,0.1111111111111111,64.22222222222223,0)" xlink:href="#ap"/></g><path fill="#3a414a" d="M231 0h-52l-39-155L100 0H48L-1-190h46L77-45c9-52 24-97 36-145h53l37 145 32-145h46" id="ar"/><path fill="#3a414a" d="M135-150c-39-12-60 13-60 57V0H25l-1-190h47c2 13-1 29 3 40 6-28 27-53 61-41v41" id="as"/><path fill="#3a414a" d="M185-48c-13 30-37 53-82 52C43 2 14-33 14-96s30-98 90-98c62 0 83 45 84 108H66c0 31 8 55 39 56 18 0 30-7 34-22zm-45-69c5-46-57-63-70-21-2 6-4 13-4 21h74" id="at"/><path fill="#3a414a" d="M114-157C55-157 80-60 75 0H25v-261h50l-1 109c12-26 28-41 61-42 86-1 58 113 63 194h-50c-7-57 23-157-34-157" id="au"/><path fill="#3a414a" d="M110-194c64 0 96 36 96 99 0 64-35 99-97 99-61 0-95-36-95-99 0-62 34-99 96-99zm-1 164c35 0 45-28 45-65 0-40-10-65-43-65-34 0-45 26-45 65 0 36 10 65 43 65" id="av"/><path fill="#3a414a" d="M85 4C-2 5 27-109 22-190h50c7 57-23 150 33 157 60-5 35-97 40-157h50l1 190h-47c-2-12 1-28-3-38-12 25-28 42-61 42" id="aw"/><path fill="#3a414a" d="M137-138c1-29-70-34-71-4 15 46 118 7 119 86 1 83-164 76-172 9l43-7c4 19 20 25 44 25 33 8 57-30 24-41C81-84 22-81 20-136c-2-80 154-74 161-7" id="ax"/><g id="o"><use transform="matrix(0.1111111111111111,0,0,0.1111111111111111,0,0)" xlink:href="#ar"/><use transform="matrix(0.1111111111111111,0,0,0.1111111111111111,31.11111111111111,0)" xlink:href="#ap"/><use transform="matrix(0.1111111111111111,0,0,0.1111111111111111,53.33333333333333,0)" xlink:href="#as"/><use transform="matrix(0.1111111111111111,0,0,0.1111111111111111,68.88888888888889,0)" xlink:href="#at"/><use transform="matrix(0.1111111111111111,0,0,0.1111111111111111,91.11111111111111,0)" xlink:href="#au"/><use transform="matrix(0.1111111111111111,0,0,0.1111111111111111,115.44444444444444,0)" xlink:href="#av"/><use transform="matrix(0.1111111111111111,0,0,0.1111111111111111,139.77777777777777,0)" xlink:href="#aw"/><use transform="matrix(0.1111111111111111,0,0,0.1111111111111111,164.11111111111111,0)" xlink:href="#ax"/><use transform="matrix(0.1111111111111111,0,0,0.1111111111111111,186.33333333333334,0)" xlink:href="#at"/></g><g id="p"><use transform="matrix(0.07407407407407408,0,0,0.07407407407407408,0,0)" xlink:href="#ao"/><use transform="matrix(0.07407407407407408,0,0,0.07407407407407408,19.185185185185187,0)" xlink:href="#ap"/><use transform="matrix(0.07407407407407408,0,0,0.07407407407407408,34,0)" xlink:href="#aq"/><use transform="matrix(0.07407407407407408,0,0,0.07407407407407408,42.814814814814824,0)" xlink:href="#ap"/></g><path fill="#3a414a" d="M25 0v-261h50V0H25" id="ay"/><path fill="#3a414a" d="M147 0L96-86 75-71V0H25v-261h50v150l67-79h53l-66 74L201 0h-54" id="az"/><path fill="#3a414a" d="M35-132v-50h50v50H35zM35 0v-49h50V0H35" id="aA"/><g id="q"><use transform="matrix(0.07407407407407408,0,0,0.07407407407407408,0,0)" xlink:href="#ay"/><use transform="matrix(0.07407407407407408,0,0,0.07407407407407408,7.407407407407408,0)" xlink:href="#ap"/><use transform="matrix(0.07407407407407408,0,0,0.07407407407407408,22.222222222222225,0)" xlink:href="#az"/><use transform="matrix(0.07407407407407408,0,0,0.07407407407407408,37.03703703703704,0)" xlink:href="#at"/><use transform="matrix(0.07407407407407408,0,0,0.07407407407407408,51.85185185185186,0)" xlink:href="#aA"/></g><path fill="#3a414a" d="M63-220v92h138v28H63V0H30v-248h175v28H63" id="aB"/><path fill="#3a414a" d="M24-231v-30h32v30H24zM24 0v-190h32V0H24" id="aC"/><path fill="#3a414a" d="M24 0v-261h32V0H24" id="aD"/><path fill="#3a414a" d="M100-194c63 0 86 42 84 106H49c0 40 14 67 53 68 26 1 43-12 49-29l28 8c-11 28-37 45-77 45C44 4 14-33 15-96c1-61 26-98 85-98zm52 81c6-60-76-77-97-28-3 7-6 17-6 28h103" id="aE"/><path fill="#3a414a" d="M0 4l72-265h28L28 4H0" id="aF"/><path fill="#3a414a" d="M100-194c62-1 85 37 85 99 1 63-27 99-86 99S16-35 15-95c0-66 28-99 85-99zM99-20c44 1 53-31 53-75 0-43-8-75-51-75s-53 32-53 75 10 74 51 75" id="aG"/><path fill="#3a414a" d="M115-194c53 0 69 39 70 98 0 66-23 100-70 100C84 3 66-7 56-30L54 0H23l1-261h32v101c10-23 28-34 59-34zm-8 174c40 0 45-34 45-75 0-40-5-75-45-74-42 0-51 32-51 76 0 43 10 73 51 73" id="aH"/><path fill="#3a414a" d="M24-231v-30h32v30H24zM-9 49c24 4 33-6 33-30v-209h32V24c2 40-23 58-65 49V49" id="aI"/><path fill="#3a414a" d="M96-169c-40 0-48 33-48 73s9 75 48 75c24 0 41-14 43-38l32 2c-6 37-31 61-74 61-59 0-76-41-82-99-10-93 101-131 147-64 4 7 5 14 7 22l-32 3c-4-21-16-35-41-35" id="aJ"/><path fill="#3a414a" d="M59-47c-2 24 18 29 38 22v24C64 9 27 4 27-40v-127H5v-23h24l9-43h21v43h35v23H59v120" id="aK"/><g id="r"><use transform="matrix(0.07407407407407408,0,0,0.07407407407407408,0,0)" xlink:href="#aB"/><use transform="matrix(0.07407407407407408,0,0,0.07407407407407408,16.222222222222225,0)" xlink:href="#aC"/><use transform="matrix(0.07407407407407408,0,0,0.07407407407407408,22.074074074074076,0)" xlink:href="#aD"/><use transform="matrix(0.07407407407407408,0,0,0.07407407407407408,27.92592592592593,0)" xlink:href="#aE"/><use transform="matrix(0.07407407407407408,0,0,0.07407407407407408,42.74074074074075,0)" xlink:href="#aF"/><use transform="matrix(0.07407407407407408,0,0,0.07407407407407408,50.14814814814815,0)" xlink:href="#aG"/><use transform="matrix(0.07407407407407408,0,0,0.07407407407407408,64.96296296296296,0)" xlink:href="#aH"/><use transform="matrix(0.07407407407407408,0,0,0.07407407407407408,79.77777777777777,0)" xlink:href="#aI"/><use transform="matrix(0.07407407407407408,0,0,0.07407407407407408,85.62962962962962,0)" xlink:href="#aE"/><use transform="matrix(0.07407407407407408,0,0,0.07407407407407408,100.44444444444443,0)" xlink:href="#aJ"/><use transform="matrix(0.07407407407407408,0,0,0.07407407407407408,113.77777777777777,0)" xlink:href="#aK"/></g><path fill="#3a414a" d="M135-143c-3-34-86-38-87 0 15 53 115 12 119 90S17 21 10-45l28-5c4 36 97 45 98 0-10-56-113-15-118-90-4-57 82-63 122-42 12 7 21 19 24 35" id="aL"/><path fill="#3a414a" d="M114-163C36-179 61-72 57 0H25l-1-190h30c1 12-1 29 2 39 6-27 23-49 58-41v29" id="aM"/><path fill="#3a414a" d="M141-36C126-15 110 5 73 4 37 3 15-17 15-53c-1-64 63-63 125-63 3-35-9-54-41-54-24 1-41 7-42 31l-33-3c5-37 33-52 76-52 45 0 72 20 72 64v82c-1 20 7 32 28 27v20c-31 9-61-2-59-35zM48-53c0 20 12 33 32 33 41-3 63-29 60-74-43 2-92-5-92 41" id="aN"/><path fill="#3a414a" d="M177-190C167-65 218 103 67 71c-23-6-38-20-44-43l32-5c15 47 100 32 89-28v-30C133-14 115 1 83 1 29 1 15-40 15-95c0-56 16-97 71-98 29-1 48 16 59 35 1-10 0-23 2-32h30zM94-22c36 0 50-32 50-73 0-42-14-75-50-75-39 0-46 34-46 75s6 73 46 73" id="aO"/><g id="s"><use transform="matrix(0.07407407407407408,0,0,0.07407407407407408,0,0)" xlink:href="#aL"/><use transform="matrix(0.07407407407407408,0,0,0.07407407407407408,13.333333333333336,0)" xlink:href="#aK"/><use transform="matrix(0.07407407407407408,0,0,0.07407407407407408,20.740740740740744,0)" xlink:href="#aG"/><use transform="matrix(0.07407407407407408,0,0,0.07407407407407408,35.55555555555556,0)" xlink:href="#aM"/><use transform="matrix(0.07407407407407408,0,0,0.07407407407407408,44.370370370370374,0)" xlink:href="#aN"/><use transform="matrix(0.07407407407407408,0,0,0.07407407407407408,59.18518518518519,0)" xlink:href="#aO"/><use transform="matrix(0.07407407407407408,0,0,0.07407407407407408,74,0)" xlink:href="#aE"/></g><g id="t"><use transform="matrix(0.05555555555555555,0,0,0.05555555555555555,0,0)" xlink:href="#am"/><use transform="matrix(0.05555555555555555,0,0,0.05555555555555555,13.333333333333332,0)" xlink:href="#T"/><use transform="matrix(0.05555555555555555,0,0,0.05555555555555555,24.444444444444443,0)" xlink:href="#J"/><use transform="matrix(0.05555555555555555,0,0,0.05555555555555555,35.55555555555556,0)" xlink:href="#U"/><use transform="matrix(0.05555555555555555,0,0,0.05555555555555555,42.16666666666667,0)" xlink:href="#an"/><use transform="matrix(0.05555555555555555,0,0,0.05555555555555555,52.16666666666667,0)" xlink:href="#O"/></g><use transform="matrix(0.05555555555555555,0,0,0.05555555555555555,0,0)" xlink:href="#aj" id="u"/><path fill="#333" d="M127-220V0H93v-220H8v-28h204v28h-85" id="aP"/><g id="v"><use transform="matrix(0.05555555555555555,0,0,0.05555555555555555,0,0)" xlink:href="#aP"/><use transform="matrix(0.05555555555555555,0,0,0.05555555555555555,11.444444444444445,0)" xlink:href="#R"/><use transform="matrix(0.05555555555555555,0,0,0.05555555555555555,15.833333333333332,0)" xlink:href="#I"/><use transform="matrix(0.05555555555555555,0,0,0.05555555555555555,32.44444444444444,0)" xlink:href="#O"/></g><use transform="matrix(0.05555555555555555,0,0,0.05555555555555555,0,0)" xlink:href="#aj" id="w"/><use transform="matrix(0.05555555555555555,0,0,0.05555555555555555,0,0)" xlink:href="#ak" id="x"/><use transform="matrix(0.05555555555555555,0,0,0.05555555555555555,0,0)" xlink:href="#ak" id="y"/></defs></g></svg>